<svg xmlns="http://www.w3.org/2000/svg" viewBox="0 0 512 512" width="24" height="24">
    <g>
        <!-- Top Left Flower -->
        <path
            d="M150 120 C130 100 120 70 140 50 C160 30 190 40 210 60 C190 40 200 10 230 10 C260 10 270 40 250 60 C270 40 300 30 320 50 C340 70 330 100 310 120 C290 140 220 140 150 120 Z"
            fill="#FF84A1" />
        <circle cx="230" cy="85" r="25" fill="#ffd0db" />

        <!-- Small Heart Petals -->
        <path
            d="M350 100 C370 80 390 90 400 110 C410 90 430 80 450 100 C470 120 455 150 425 170 C395 150 330 120 350 100 Z"
            fill="#FF84A1" />
        <path
            d="M450 280 C470 260 490 270 500 290 C510 270 530 260 550 280 C570 300 555 330 525 350 C495 330 430 300 450 280 Z"
            fill="#FF84A1" />
        <path
            d="M80 250 C100 230 120 240 130 260 C140 240 160 230 180 250 C200 270 185 300 155 320 C125 300 60 270 80 250 Z"
            fill="#FF84A1" />

        <!-- Bottom Right Large Flower -->
        <path
            d="M300 370 C280 350 270 320 290 300 C310 280 340 290 360 310 C340 290 350 260 380 260 C410 260 420 290 400 310 C420 290 450 280 470 300 C490 320 480 350 460 370 C440 390 370 390 300 370 Z"
            fill="#FF84A1" />
        <path
            d="M360 335 L380 290 L350 315 L380 270 L340 295 L370 260 L330 290 L350 250 L325 285 L335 245 L315 280 Z"
            fill="#ff6e93" opacity="0.7" />
        <circle cx="380" cy="335" r="30" fill="#ffd0db" />
    </g>
</svg> 